# xmcd
#
# Track frame offsets: 
#        150
#        13904
#        27547
#        40012
#        51345
#        64675
#        77428
#        89824
#        102061
#        114840
#        128174
#        139629
#        151944
#        163514
#        174060
#        185320
#        197050
#        209075
#        221148
#        231889
#        244302
#        257217
#
# Disc length: 3586 seconds
#
# Revision: 0
# Processed by: cddbd v1.5.2PL0 Copyright (c) Steve Scherf et al.
# Submitted via: ExactAudioCopy v0.99pb4
#
DISCID=320e0016
DTITLE=Sonny Boy Williamson - BD Blues [CD1] Jackson 1951-1954
DYEAR=2008
DGENRE=Blues
TTITLE0=Eyesight To The Blind
TTITLE1=Crazy About You Baby
TTITLE2=Cool Cool Blues
TTITLE3=Do It If You Wanta
TTITLE4=Stop Crying
TTITLE5=Come On Back Home
TTITLE6=West Memphis Blues
TTITLE7=Pontiac Blues
TTITLE8=Nine Below Zero
TTITLE9=Mighty Long Time
TTITLE10=Mr. Down Child
TTITLE11=Stop Now Baby
TTITLE12=She Brought Life Back To The Dead
TTITLE13=Sonny's Rhythm
TTITLE14=City of New Orleans
TTITLE15=Red Hot Kisses
TTITLE16=Going In Your Direction
TTITLE17=Empty Bedroom
TTITLE18=Shucking Mana
TTITLE19=I Ain't Begging Nobody
TTITLE20=No Nights By Myself
TTITLE21=From The Bottom
EXTD=
EXTT0=
EXTT1=
EXTT2=
EXTT3=
EXTT4=
EXTT5=
EXTT6=
EXTT7=
EXTT8=
EXTT9=
EXTT10=
EXTT11=
EXTT12=
EXTT13=
EXTT14=
EXTT15=
EXTT16=
EXTT17=
EXTT18=
EXTT19=
EXTT20=
EXTT21=
PLAYORDER=
